<?xml version="1.0" encoding="utf-8"?>
<!-- Generator: Adobe Illustrator 13.0.0, SVG Export Plug-In . SVG Version: 6.00 Build 14948)  -->
<!DOCTYPE svg PUBLIC "-//W3C//DTD SVG 1.0//EN" "http://www.w3.org/TR/2001/REC-SVG-20010904/DTD/svg10.dtd">
<svg version="1.0" id="Calque_1" xmlns="http://www.w3.org/2000/svg" xmlns:xlink="http://www.w3.org/1999/xlink" x="0px" y="0px"
	 width="196.108px" height="52.55px" viewBox="0.1 -6.75 196.108 52.55" enable-background="new 0.1 -6.75 196.108 52.55"
	 xml:space="preserve">
<g>
	<g>
		<g>
			<g>
				<path fill="#012E31" d="M136.5,3.3c-7.1,0-12.899,5.8-12.899,12.9c0,7.1,5.8,12.899,12.899,12.899c3.4,0,6.701-1.3,9.101-3.8
					c0.8-0.8,0.8-2,0-2.8c-0.399-0.4-0.899-0.6-1.399-0.6s-1,0.2-1.4,0.6c-1.7,1.7-3.9,2.6-6.301,2.6c-4.899,0-9-4-9-9s4-9,9-9
					c4.201,0,7.801,2.9,8.701,7H136.5c-1.1,0-2,0.9-2,2s0.9,2,2,2h10.9c1.1,0,2-0.9,2-2C149.4,9.1,143.6,3.3,136.5,3.3z"/>
				<path fill="#012E31" d="M165,3.3c-7.1,0-12.899,5.8-12.899,12.9c0,7.1,5.8,12.899,12.899,12.899c3.4,0,6.701-1.3,9.101-3.8
					c0.399-0.399,0.601-0.899,0.601-1.399c0-0.5-0.201-1-0.601-1.4s-0.899-0.6-1.399-0.6s-1,0.2-1.4,0.6c-1.7,1.7-3.9,2.6-6.301,2.6
					c-4.899,0-9-4-9-9s4-9,9-9c4.201,0,7.801,2.9,8.701,7H165c-1.1,0-2,0.9-2,2s0.9,2,2,2h10.9c1.1,0,2-0.9,2-2
					C177.9,9.1,172.1,3.3,165,3.3z"/>
				<path fill="#012E31" d="M194.3,25.1c-4.9,0-9-4-9-9V4.8c0-1.1-0.9-2-2-2s-2,0.9-2,2v11.4c0,7.1,5.8,12.899,12.9,12.899
					c1.1,0,2-0.899,2-2C196.3,26,195.4,25.1,194.3,25.1z"/>
				<path fill="#012E31" d="M79.4,2.8c-1.1,0-2,0.9-2,2v11.4c0,4.9-4,9-9,9c-2.4,0-4.6-0.9-6.3-2.6c-0.4-0.4-0.9-0.6-1.4-0.6
					s-1,0.2-1.4,0.6c-0.4,0.4-0.6,0.9-0.6,1.4s0.2,1,0.6,1.4c2.4,2.399,5.7,3.8,9.1,3.8c7.1,0,12.9-5.8,12.9-12.9V4.8
					C81.4,3.7,80.5,2.8,79.4,2.8z"/>
				<path fill="#012E31" d="M118.1,2.8c-1.101,0-2,0.9-2,2v14.7c0,3.1-2.5,5.7-5.7,5.7c-3.1,0-5.699-2.5-5.699-5.7V9.1
					c0-1.1-0.9-2-2-2c-1.101,0-2,0.9-2,2v10.3c0,3.1-2.5,5.7-5.701,5.7c-3.1,0-5.7-2.5-5.7-5.7V4.8c0-1.1-0.9-2-2-2
					c-1.1,0-2,0.9-2,2v14.7c0,5.3,4.3,9.6,9.6,9.6c3,0,5.801-1.399,7.7-3.8c1.8,2.4,4.7,3.8,7.7,3.8c5.3,0,9.6-4.3,9.6-9.6V4.8
					C120.1,3.7,119.201,2.8,118.1,2.8z"/>
			</g>
		</g>
		<g>
			<path fill="#B8B6B0" d="M72.9,39.8c0,0.7-0.2,1.2-0.5,1.601C72,41.8,71.5,42,70.9,42s-1.1-0.2-1.5-0.6
				c-0.3-0.4-0.5-0.9-0.5-1.601s0.2-1.2,0.5-1.6c0.3-0.4,0.8-0.601,1.5-0.601c0.6,0,1.1,0.2,1.4,0.601
				C72.6,38.6,72.9,39.1,72.9,39.8z M69.4,39.8c0,0.601,0.1,1,0.4,1.3c0.2,0.301,0.6,0.4,1.1,0.4s0.8-0.1,1.1-0.4
				c0.2-0.3,0.4-0.699,0.4-1.3c0-0.6-0.1-1-0.4-1.3c-0.2-0.3-0.6-0.4-1.1-0.4s-0.8,0.101-1.1,0.4C69.6,38.8,69.4,39.3,69.4,39.8z"/>
			<path fill="#B8B6B0" d="M81.9,38.9c0,0.399-0.1,0.8-0.4,1C81.2,40.1,80.8,40.3,80.2,40.3h-0.5V42h-0.5v-4.3h1.1
				C81.3,37.7,81.9,38.1,81.9,38.9z M79.6,39.9H80c0.4,0,0.8-0.101,1-0.2c0.2-0.101,0.3-0.4,0.3-0.7s-0.1-0.5-0.3-0.6
				c-0.2-0.101-0.5-0.2-0.9-0.2h-0.6v1.7H79.6z"/>
			<path fill="#B8B6B0" d="M90.5,42h-2.4v-4.3h2.4V38.1h-1.9v1.4h1.8V40h-1.8v1.6h1.9V42z"/>
			<path fill="#B8B6B0" d="M100.1,42H99.5L97.2,38.4l0,0c0,0.399,0,0.8,0,1.199V42h-0.5v-4.3h0.6l2.3,3.6l0,0c0-0.1,0-0.2,0-0.5
				s0-0.5,0-0.6v-2.5h0.5V42z"/>
			<path fill="#B8B6B0" d="M112.9,43.1c-0.199,0-0.3,0-0.4-0.1v-0.4c0.101,0,0.301,0.101,0.4,0.101c0.2,0,0.301-0.101,0.4-0.2
				s0.199-0.3,0.199-0.5v-4.3h0.5v4.2c0,0.399-0.1,0.699-0.299,0.899C113.5,43,113.3,43.1,112.9,43.1z"/>
			<path fill="#B8B6B0" d="M122.9,42h-2.4v-4.3h2.4V38.1H121v1.4h1.801V40H121v1.6h1.9V42z"/>
			<path fill="#B8B6B0" d="M132.9,42h-0.5l-0.9-2.9c0-0.1-0.1-0.3-0.1-0.5c-0.1-0.199-0.1-0.3-0.1-0.3c0,0.3-0.1,0.5-0.2,0.8
				l-0.8,2.9h-0.5l-1.1-4.3h0.5l0.699,2.6c0.1,0.4,0.2,0.7,0.2,1c0.101-0.399,0.101-0.7,0.2-1l0.8-2.6h0.5l0.8,2.6
				c0.1,0.3,0.2,0.601,0.2,1c0-0.3,0.101-0.6,0.2-1l0.699-2.6h0.5L132.9,42z"/>
			<path fill="#B8B6B0" d="M142.4,42H140v-4.3h2.4V38.1h-1.9v1.4h1.801V40H140.5v1.6h1.9V42z"/>
			<path fill="#B8B6B0" d="M148.701,42v-4.3h0.5v3.8h1.899V42H148.701z"/>
			<path fill="#B8B6B0" d="M157.201,42v-4.3h0.5v3.8h1.899V42H157.201z"/>
			<path fill="#B8B6B0" d="M168,42H165.6v-4.3H168V38.1H166.1v1.4h1.8V40h-1.8v1.6H168V42z"/>
			<path fill="#B8B6B0" d="M180.9,42c0,0-0.6,0.7-1.699,0.7c-1.201,0-1.9-0.8-2.4-1.601c0,0-0.5-0.899-0.6-1.1
				c0.5-0.2,0.799-0.6,0.799-1.1c0-0.4-0.1-0.7-0.399-0.9s-0.601-0.3-1.2-0.3h-1.199V42h0.5v-1.8h0.899c0.101,0.2,0.7,1.2,0.7,1.2
				c0.5,0.8,1,1.699,2.5,1.699C180.3,43,181.3,41.9,180.9,42z M174.8,39.8v-1.6h0.6c0.4,0,0.6,0.1,0.801,0.2
				c0.199,0.1,0.299,0.3,0.299,0.6s-0.1,0.5-0.199,0.6c-0.2,0.101-0.4,0.2-0.801,0.2H174.8z"/>
			<path fill="#B8B6B0" d="M184.5,39.8l1.101-2.1h0.5l-1.399,2.6V42h-0.5v-1.6l-1.4-2.601h0.5L184.5,39.8z"/>
		</g>
	</g>
	<g>
		<g>
			<g>
				<g>
					<polygon fill="#012E31" points="30.6,7.6 24.1,7.6 27.4,10.8 					"/>
					<path fill="#012E31" d="M32.5,10.2l-3,3c1.7,1.7,2.8,4.1,2.8,6.8c0,5.3-4.3,9.6-9.6,9.6c-2.6,0-5-1-6.8-2.8
						c-0.4-0.399-0.9-0.6-1.5-0.6s-1.1,0.2-1.5,0.6c-0.8,0.8-0.8,2.2,0,3c2.6,2.601,6.1,4,9.7,4c7.6,0,13.8-6.2,13.8-13.8
						C36.6,16.1,35,12.7,32.5,10.2z"/>
				</g>
			</g>
			<path fill="none" stroke="#012E31" stroke-width="0.5" stroke-miterlimit="10" d="M30.3,34.2"/>
		</g>
		<path fill="#D6D4CF" d="M22.9-2.9C10.3-2.9,0.1,7.3,0.1,19.9s10.2,22.8,22.8,22.8c0.1,0,0.3,0,0.4,0h0.1l0,0
			c12.4-0.3,22.3-10.4,22.3-22.8C45.8,7.3,35.5-2.9,22.9-2.9z M29,37.2l-5.7,5.6v-4.6c-0.1,0-0.3,0-0.4,0C12.8,38.2,4.6,30,4.6,19.9
			S12.8,1.7,22.9,1.7S41.2,9.9,41.2,20C41.2,27.9,36.1,34.7,29,37.2z"/>
	</g>
</g>
<g id="layer1" transform="translate(-298.11682,-493.68155)" >
	<g id="g5244">
		<g id="_x35_8" transform="translate(347.02682,513.05825)">
			<path id="path5216" fill="#C0CBCE" stroke="#C0CBCE" stroke-width="0.1" stroke-linecap="round" stroke-linejoin="round" d="
				M95.594-17.151l0.003,0.136c0.044,0.293-0.008,0.669-0.154,1.129c-0.127,0.433-0.271,0.719-0.428,0.861l0.484-0.196l0.646,0.055
				c0.094,0.181-0.136,0.492-0.688,0.934c-0.551,0.442-0.889,0.623-1.012,0.544l-2.564-0.671l-2.636-0.207
				c-1.557-0.077-3.4,0.194-5.532,0.812c-1.407,0.429-2.53,0.903-3.362,1.421c-1.271,0.797-2.548,2.023-3.831,3.677l-0.024,0.019
				c-0.113,0.239-0.5,0.299-1.159,0.181c-0.676-0.105-0.959-0.277-0.848-0.516c0.054-0.143,0.211-0.193,0.478-0.152l0.373,0.059
				c-0.32-0.352-0.442-0.92-0.366-1.708c0.027-0.463,0.113-0.735,0.263-0.818c0.2-0.119,0.362-0.003,0.489,0.348l0.124,0.517
				l1.069-1.937l0.231-0.326c-0.082,0.53-0.075,1.111,0.023,1.745l1.809-1.301l1.434-0.93l0.095-0.031
				c1.701-1.046,3.344-1.808,4.922-2.286c3.417-1.021,6.502-0.933,9.256,0.266C95.159-16.043,95.463-16.584,95.594-17.151
				 M94.348-15.243c-1.445-0.602-3.007-0.882-4.687-0.842c-1.573,0.041-3.152,0.354-4.735,0.936l-1.182,0.472l0.022,0.004
				l0.193-0.083c2.463-0.899,4.441-1.322,5.941-1.269l3.188,0.587l1.051,0.368L94.348-15.243 M93.061-14.968l0.635,0.144
				l-1.313-0.431L93.061-14.968 M69.684-14.424l-0.1,0.64c-0.104,0.481-0.283,0.702-0.532,0.664
				c-0.237-0.022-0.369-0.148-0.393-0.377l0.033-0.357l0.485-0.217c0.191-0.167,0.321-0.515,0.39-1.048l0.014-0.088L69.684-14.424
				 M66.27-17.624l-0.173,0.538c-0.007,0.135,0.105,0.281,0.338,0.438l0.539,0.31c-0.384,0.151-0.662,0.433-0.83,0.842
				c-0.174,0.427-0.168,0.82,0.021,1.18c0.211,0.38,0.515,0.511,0.911,0.392c0.431-0.159,0.76-0.621,0.982-1.386
				c-0.125,0.509-0.053,0.92,0.215,1.232c0.117,0.124,0.241,0.196,0.375,0.217l-0.206,0.442c-0.142,0.34-0.485,0.551-1.023,0.632
				c-0.508,0.057-0.919-0.007-1.238-0.193c-0.552-0.326-0.81-0.849-0.772-1.567c0.041-0.657,0.301-1.204,0.776-1.643l-0.19,0.061
				l-0.337,0.128l0.003-0.022c-0.413-0.154-0.529-0.421-0.35-0.801c0.178-0.364,0.49-0.631,0.939-0.803L66.27-17.624"/>
			<path id="path5218" fill="#EDF2F4" stroke="#EDF2F4" stroke-width="0.1" stroke-linecap="round" stroke-linejoin="round" d="
				M94.688-15.528c-2.754-1.199-5.839-1.286-9.256-0.266c-1.578,0.478-3.221,1.24-4.922,2.286l-0.095,0.031l-1.434,0.93
				l-1.809,1.301c-0.099-0.634-0.105-1.215-0.023-1.745c0.471-0.695,0.974-1.265,1.51-1.709c1.017-0.822,2.246-1.543,3.685-2.163
				c1.05-0.455,2.012-0.78,2.89-0.974c1.854-0.405,3.555-0.435,5.1-0.088l-0.435-0.25c-0.347-0.205-0.488-0.362-0.425-0.473
				c0.166-0.201,0.751-0.176,1.752,0.069l1.937,0.64c0.679,0.287,1.157,0.588,1.441,0.903l0.168-0.358
				c0.118-0.268,0.261-0.404,0.426-0.408c0.197,0,0.329,0.217,0.396,0.649C95.463-16.584,95.159-16.043,94.688-15.528 M94.14-15.071
				l-1.051-0.368l-3.188-0.587c-1.5-0.053-3.479,0.37-5.941,1.269l-0.193,0.083l-0.022-0.004l1.182-0.472
				c1.583-0.582,3.162-0.895,4.735-0.936c1.68-0.04,3.241,0.24,4.687,0.842L94.14-15.071 M92.383-15.255l1.313,0.431l-0.635-0.144
				L92.383-15.255 M68.725-13.917l-0.022-0.004l-0.055,0.06c-0.134-0.021-0.258-0.094-0.375-0.217
				c-0.268-0.312-0.34-0.723-0.215-1.232c-0.223,0.765-0.552,1.227-0.982,1.386c-0.396,0.119-0.7-0.012-0.911-0.392
				c-0.188-0.36-0.194-0.753-0.021-1.18c0.168-0.41,0.446-0.691,0.83-0.842l-0.539-0.31c-0.232-0.157-0.345-0.302-0.338-0.438
				l0.173-0.538c0.481-0.181,1.048-0.138,1.701,0.129c0.832,0.355,1.369,1.117,1.61,2.285l-0.014,0.088
				c-0.068,0.533-0.198,0.881-0.39,1.048l-0.485,0.217L68.725-13.917"/>
			<path id="path5220" fill="#910303" stroke="#910303" stroke-width="0.1" stroke-linecap="round" stroke-linejoin="round" d="
				M76.156-15.904c0.08-1.284,0.346-2.509,0.8-3.675l-0.02-0.025c-0.836,0.91-1.329,2.198-1.481,3.862
				c-0.216-0.365-0.337-0.746-0.368-1.142c-0.086-0.692-0.041-1.567,0.139-2.624l-0.029,0.04l-0.389,0.753
				c-0.146,0.369-0.229,0.696-0.242,0.98l-0.771,0.739l-0.634,0.874c-0.317,0.403-0.574,0.544-0.767,0.424
				c-0.54-0.31-1.294-0.353-2.265-0.127l-0.312-0.75l0.003-0.021l1.552-0.527l1.191-0.539l0.186-0.31l0.397-0.526l0.713-1.088
				l0.926-1.302c0.402-0.556,0.786-0.934,1.149-1.133l0.171-0.086l0.014,0.048c-0.575,0.995-0.647,2.032-0.211,3.11
				c0.118-0.57,0.369-1.165,0.751-1.783c0.405-0.661,0.763-1.027,1.076-1.099c0.142-0.039,0.18,0.065,0.11,0.311
				c-0.173,0.621-0.228,1.118-0.164,1.489c0.086,0.406,0.336,0.746,0.745,1.021c0.466,0.314,0.938,0.659,1.423,1.035
				c0.316,0.186,0.624,0.15,0.921-0.105c1.317-1.106,3.095-1.968,5.333-2.584c1.57-0.418,2.853-0.611,3.842-0.578l0.855,0.607
				c0.775,0.634,1.173,1.179,1.193,1.634l-1.716-0.313l-0.869,0.069c-0.363,0.094-0.567,0.25-0.616,0.469
				c-0.62-0.082-1.673-0.004-3.157,0.231c-2.482,0.458-4.74,1.441-6.769,2.949c-1.152,0.83-2.019,1.789-2.595,2.875
				C76.149-13.974,76.111-15.036,76.156-15.904"/>
			<path id="path5222" fill="#AF1010" stroke="#AF1010" stroke-width="0.1" stroke-linecap="round" stroke-linejoin="round" d="
				M89.945-21.242c-0.989-0.034-2.271,0.159-3.842,0.578c-2.238,0.617-4.016,1.478-5.333,2.584
				c-0.297,0.255-0.604,0.291-0.921,0.105c-0.484-0.376-0.957-0.721-1.423-1.035c-0.409-0.275-0.659-0.615-0.745-1.021
				c-0.063-0.372-0.009-0.868,0.164-1.489c0.069-0.246,0.031-0.35-0.11-0.311c-0.313,0.071-0.671,0.438-1.076,1.099
				c-0.382,0.618-0.633,1.213-0.751,1.783c-0.437-1.079-0.364-2.115,0.211-3.11l-0.014-0.048l-0.171,0.086
				c-0.363,0.199-0.747,0.577-1.149,1.133l-0.926,1.302l-0.713,1.088l-0.397,0.526c0.353-0.729,0.818-2.308,1.391-4.737
				c0.084-0.243,0.453-0.441,1.112-0.595l1.278-0.231l1.381-0.146l1.382-0.169l1.994-0.594c0.883-0.27,1.54-0.409,1.964-0.418
				c0.42,0.006,1.125,0.281,2.108,0.826l2.958,1.772L89.945-21.242"/>
			<path id="path5224" fill="#660101" stroke="#660101" stroke-width="0.1" stroke-linecap="round" stroke-linejoin="round" d="
				M70.129-15.825c0.971-0.226,1.725-0.183,2.265,0.127c0.192,0.12,0.449-0.021,0.767-0.424l0.634-0.874l0.771-0.739
				c0.014-0.285,0.096-0.611,0.242-0.98l0.389-0.753l0.029-0.04c-0.18,1.057-0.225,1.932-0.139,2.624
				c0.031,0.396,0.152,0.777,0.368,1.142c0.152-1.664,0.646-2.952,1.481-3.862l0.02,0.025c-0.454,1.166-0.72,2.391-0.8,3.675
				c-0.045,0.867-0.007,1.929,0.116,3.184l-0.345,0.761l-0.283-0.362c-0.152-0.762-0.231-1.566-0.235-2.411
				c-0.509-0.41-0.795-1.186-0.859-2.327l-0.935,1.211l-0.443,0.677c-0.18,0.273-0.321,0.417-0.431,0.431l-0.608-0.298
				c-0.356-0.237-0.616-0.36-0.779-0.371l-1.135,0.027L70.129-15.825 M88.317-22.264l-2.958-1.772
				c-0.983-0.545-1.688-0.82-2.108-0.826c-0.424,0.01-1.081,0.149-1.964,0.418l-1.994,0.594l-1.382,0.169l-1.381,0.146l-1.278,0.231
				c-0.659,0.154-1.028,0.353-1.112,0.595c-0.572,2.429-1.038,4.007-1.391,4.737l-0.186,0.31l-1.191,0.539l-1.552,0.527
				l-0.272-0.427c0.414-0.239,0.972-0.476,1.67-0.714c0.655-0.229,1.005-0.393,1.05-0.492l0.605-2.438
				c0.316-1.353,0.615-2.264,0.902-2.731l0.022-0.019c0.22-0.237,1.041-0.487,2.469-0.747l3.478-0.68
				c0.201-0.043,0.716-0.204,1.543-0.482c0.652-0.215,1.168-0.338,1.55-0.369l-0.019-0.026l0.944,0.034l0.92,0.482
				c1.833,1.009,3.358,1.917,4.575,2.725c2.104,1.398,3.277,2.282,3.521,2.651c0.122,0.185,0.098,0.536-0.072,1.052L91.994-19
				c-0.021-0.456-0.418-1-1.193-1.634l-0.855-0.607L88.317-22.264"/>
			<path id="path5226" fill="#2F3B47" stroke="#2F3B47" stroke-width="0.1" stroke-linecap="round" stroke-linejoin="round" d="
				M76.919-12.664l-1.069,1.937l-0.124-0.517c-0.127-0.352-0.289-0.467-0.489-0.348c-0.149,0.083-0.235,0.355-0.263,0.818
				c-0.076,0.788,0.046,1.357,0.366,1.708l-0.373-0.059c-0.267-0.041-0.424,0.009-0.478,0.152c-0.111,0.239,0.172,0.411,0.848,0.516
				c0.659,0.118,1.046,0.058,1.159-0.181l0.024-0.019c1.283-1.654,2.56-2.88,3.831-3.677c0.832-0.519,1.955-0.992,3.362-1.421
				c2.132-0.618,3.976-0.889,5.532-0.812l2.636,0.207l2.564,0.671c0.123,0.079,0.461-0.102,1.012-0.544
				c0.552-0.442,0.781-0.753,0.688-0.934L95.5-15.221l-0.484,0.196c0.156-0.142,0.301-0.428,0.428-0.861
				c0.146-0.459,0.198-0.835,0.154-1.129l-0.003-0.136c-0.067-0.433-0.199-0.649-0.396-0.649c-0.165,0.004-0.308,0.14-0.426,0.408
				l-0.168,0.358c-0.284-0.315-0.763-0.616-1.441-0.903l-1.937-0.64c-1.001-0.246-1.586-0.27-1.752-0.069
				c-0.063,0.11,0.078,0.268,0.425,0.473l0.435,0.25c-1.545-0.347-3.245-0.317-5.1,0.088c-0.878,0.194-1.84,0.52-2.89,0.974
				c-1.438,0.62-2.668,1.341-3.685,2.163c-0.536,0.444-1.039,1.014-1.51,1.709L76.919-12.664 M92.706-18.777
				c0.669,0.24,1.217,0.551,1.641,0.934c0.199-0.406,0.508-0.592,0.924-0.557c0.418,0.02,0.705,0.253,0.862,0.7
				c0.193,0.603,0.095,1.235-0.297,1.898c0.525-0.084,0.858,0.021,0.993,0.313c0.057,0.114,0.034,0.276-0.076,0.486l-0.27,0.433
				l-0.88,0.857l-1.033,0.676c-0.715-0.338-1.7-0.604-2.95-0.799c-2.491-0.372-5.052-0.146-7.681,0.682
				c-1.493,0.476-2.82,1.106-3.981,1.89C78.46-10.26,77.437-9.116,76.89-7.83c-0.048,0.114-0.364,0.162-0.949,0.146
				c-0.674-0.029-1.223-0.19-1.645-0.481l-0.484-0.528c-0.115-0.214-0.145-0.415-0.088-0.601l0.329-0.221
				c0.21-0.073,0.379-0.099,0.511-0.079c-0.135-0.307-0.179-0.699-0.135-1.173c0.024-0.434,0.103-0.792,0.235-1.072
				c0.158-0.337,0.36-0.524,0.607-0.561l0.372,0.08l0.283,0.362l0.345-0.761c0.576-1.087,1.442-2.045,2.595-2.875
				c2.028-1.508,4.286-2.491,6.769-2.949c1.484-0.236,2.537-0.313,3.157-0.231c0.049-0.218,0.253-0.375,0.616-0.469l0.869-0.069
				L91.994-19L92.706-18.777 M70.218-15.381l0.024,0.139c0.053,0.626,0.047,1.093-0.016,1.4c-0.118,0.57-0.346,0.957-0.677,1.161
				c-0.187,0.121-0.36,0.17-0.521,0.144c-0.159-0.039-0.287-0.126-0.388-0.263l-0.702,0.434c-0.272,0.108-0.521,0.16-0.747,0.155
				l-1.058-0.187c-0.353-0.146-0.637-0.348-0.854-0.608c-0.288-0.377-0.452-0.825-0.491-1.344c-0.035-0.548,0.087-0.996,0.369-1.345
				c-0.285-0.21-0.455-0.478-0.509-0.803c-0.068-0.341,0.012-0.653,0.235-0.936c0.28-0.348,0.702-0.591,1.267-0.729
				c0.501-0.118,1.007-0.13,1.521-0.035c0.781,0.122,1.405,0.513,1.876,1.175l0.272,0.427l-0.003,0.021l0.312,0.75L70.218-15.381
				 M66.25-17.627c-0.449,0.171-0.762,0.439-0.939,0.803c-0.18,0.38-0.063,0.646,0.35,0.801l-0.003,0.022l0.337-0.128l0.19-0.061
				c-0.476,0.438-0.735,0.985-0.776,1.643c-0.037,0.718,0.221,1.241,0.772,1.567c0.319,0.186,0.73,0.25,1.238,0.193
				c0.538-0.082,0.882-0.292,1.023-0.632l0.206-0.442l0.055-0.06l0.022,0.004l-0.032,0.062l-0.033,0.357
				c0.023,0.229,0.155,0.355,0.393,0.377c0.249,0.039,0.428-0.182,0.532-0.664l0.1-0.64l-0.103-0.785
				c-0.241-1.168-0.778-1.93-1.61-2.285c-0.653-0.268-1.22-0.311-1.701-0.129L66.25-17.627"/>
		</g>
	</g>
</g>
</svg>
