<?xml version="1.0" encoding="utf-8"?>
<!-- Generator: Adobe Illustrator 17.0.0, SVG Export Plug-In . SVG Version: 6.00 Build 0)  -->
<!DOCTYPE svg PUBLIC "-//W3C//DTD SVG 1.1//EN" "http://www.w3.org/Graphics/SVG/1.1/DTD/svg11.dtd">
<svg version="1.1" id="Calque_1" xmlns="http://www.w3.org/2000/svg" xmlns:xlink="http://www.w3.org/1999/xlink" x="0px" y="0px"
	 width="59px" height="240px" viewBox="0 0 59 240" enable-background="new 0 0 59 240" xml:space="preserve">
<g>
	<path fill-rule="evenodd" clip-rule="evenodd" fill="#959B9B" d="M45.7,34.4l-10.6,0.1l0.1-10.6c0-0.8-0.7-1.5-1.5-1.5
		c-0.8,0-1.5,0.7-1.5,1.5l-0.1,10.4l-10.4,0.1c-0.8,0-1.5,0.7-1.5,1.5c0,0.8,0.7,1.5,1.5,1.5l10.6-0.1l-0.1,10.6
		c0,0.8,0.7,1.5,1.5,1.5c0.8,0,1.5-0.7,1.5-1.5l0.1-10.5l10.4-0.1c0.8,0,1.5-0.7,1.5-1.5C47.2,35.1,46.5,34.4,45.7,34.4z"/>
	<ellipse opacity="0.3" fill="none" stroke="#4E4E4E" stroke-miterlimit="10" cx="33.9" cy="36.1" rx="20.5" ry="20.1"/>
</g>
<g>
	<path fill-rule="evenodd" clip-rule="evenodd" fill="#00626b" d="M45.7,218.3l-10.6,0.1l0.1-10.6c0-0.8-0.7-1.5-1.5-1.5
		c-0.8,0-1.5,0.7-1.5,1.5l-0.1,10.4l-10.4,0.1c-0.8,0-1.5,0.7-1.5,1.5c0,0.8,0.7,1.5,1.5,1.5l10.6-0.1l-0.1,10.6
		c0,0.8,0.7,1.5,1.5,1.5c0.8,0,1.5-0.7,1.5-1.5l0.1-10.5l10.4-0.1c0.8,0,1.5-0.7,1.5-1.5C47.2,218.9,46.5,218.3,45.7,218.3z"/>
	<ellipse opacity="0.3" fill="none" stroke="#00626b" stroke-miterlimit="10" cx="33.9" cy="219.9" rx="20.5" ry="20.1"/>
</g>
</svg>
