<?xml version="1.0" encoding="utf-8"?>
<!-- Generator: Adobe Illustrator 17.0.0, SVG Export Plug-In . SVG Version: 6.00 Build 0)  -->
<!DOCTYPE svg PUBLIC "-//W3C//DTD SVG 1.1//EN" "http://www.w3.org/Graphics/SVG/1.1/DTD/svg11.dtd">
<svg version="1.1" xmlns="http://www.w3.org/2000/svg" xmlns:xlink="http://www.w3.org/1999/xlink" x="0px" y="0px" width="23px"
	 height="28px" viewBox="0 0 23 28" enable-background="new 0 0 23 28" xml:space="preserve">
<g id="Calque_1">
	<g>
		<g>
			<g>
				<path fill="#B4B7B7" d="M7.7,6.7C7.8,6.6,7.9,6.5,8,6.5c0.3-0.2,0.6-0.4,0.8-0.7c0.2-0.3,0.4-0.6,0.5-0.9
					c0.1-0.4,0.2-0.8,0.2-1.2c0-0.5-0.1-1.1-0.3-1.5C9,1.7,8.7,1.3,8.3,1C8,0.7,7.5,0.4,7,0.3c-1-0.3-2.4-0.3-3.4,0
					C3,0.4,2.5,0.7,2.1,1C1.7,1.3,1.3,1.8,1,2.3C0.8,2.7,0.6,3.3,0.5,3.9l0,0.2l1.1,0.2c0.1,0,0.1,0,0.1,0c0.3,0,0.5,0,0.7-0.2
					c0.1-0.1,0.3-0.3,0.3-0.5C2.8,3.4,2.9,3.2,3,3c0.1-0.2,0.3-0.4,0.5-0.6C3.8,2.3,4,2.1,4.3,2c0.5-0.2,1.3-0.2,1.8,0
					c0.2,0.1,0.5,0.2,0.7,0.3L7.4,4c0,0.3-0.1,0.6-0.2,0.8C7.1,5,7,5.2,6.7,5.4C6.5,5.6,6.2,5.7,5.8,5.8C5.4,5.9,4.9,6,4.3,6H4.1
					v1.7h0.2c0.7,0,1.3,0.1,1.7,0.2c0.4,0.1,0.8,0.3,1,0.5C7.3,8.5,7.5,8.7,7.5,9c0.1,0.3,0.1,0.6,0.1,0.9c0,0.3-0.1,0.5-0.2,0.8
					c-0.1,0.3-0.3,0.5-0.5,0.7c-0.2,0.2-0.5,0.4-0.8,0.5c-0.3,0.1-0.7,0.2-1.2,0.2c-0.5,0-0.8-0.1-1.1-0.2c-0.3-0.1-0.6-0.3-0.8-0.5
					c-0.2-0.2-0.4-0.4-0.5-0.6c-0.1-0.2-0.2-0.4-0.3-0.6l-0.1-0.2C2.1,10,2,9.9,1.9,9.8c-0.3-0.1-0.6-0.1-0.9,0L0,10.2l0.1,0.2
					c0.2,0.5,0.4,1,0.6,1.4c0.2,0.4,0.6,0.8,0.9,1.2C2,13.3,2.5,13.6,3,13.7C3.6,13.9,4.2,14,5,14c0.7,0,1.3-0.1,1.9-0.3
					c0.6-0.2,1.1-0.5,1.5-0.8c0.4-0.4,0.8-0.8,1.1-1.3c0.3-0.5,0.4-1.1,0.4-1.8c0-0.9-0.3-1.6-0.7-2.2C8.8,7.2,8.3,6.9,7.7,6.7z
					 M22.5,4.2c-0.3-0.9-0.8-1.6-1.4-2.2c-0.6-0.6-1.3-1.1-2.2-1.4C18.1,0.2,17.2,0,16.2,0H11v14h5.2c1,0,1.9-0.2,2.8-0.5
					c0.8-0.3,1.6-0.8,2.2-1.4c0.6-0.6,1.1-1.4,1.4-2.2C22.8,9,23,8.1,23,7C23,6,22.8,5,22.5,4.2z M20.4,9.2
					c-0.2,0.6-0.5,1.1-0.9,1.6c-0.4,0.4-0.9,0.7-1.4,1c-0.6,0.2-1.2,0.3-1.8,0.3h-2.9V2h2.9c0.7,0,1.3,0.1,1.8,0.3
					c0.5,0.2,1,0.6,1.4,1c0.4,0.4,0.7,1,0.9,1.6c0.2,0.6,0.3,1.4,0.3,2.2C20.7,7.8,20.6,8.5,20.4,9.2z"/>
			</g>
		</g>
	</g>
</g>
<g id="Calque_2">
	<g>
		<g>
			<g>
				<path fill="#44C0C6" d="M7.7,20.6c0.1-0.1,0.3-0.1,0.4-0.2c0.3-0.2,0.6-0.4,0.8-0.7c0.2-0.3,0.4-0.6,0.5-0.9
					c0.1-0.4,0.2-0.8,0.2-1.2c0-0.5-0.1-1.1-0.3-1.5C9,15.7,8.7,15.3,8.3,15C8,14.6,7.5,14.4,7,14.2c-1-0.3-2.4-0.3-3.4,0
					c-0.5,0.2-1,0.4-1.4,0.8c-0.4,0.3-0.8,0.7-1,1.2c-0.3,0.5-0.5,1.1-0.6,1.7l0,0.2l1.1,0.2c0.1,0,0.1,0,0.1,0c0.3,0,0.5,0,0.7-0.2
					c0.1-0.1,0.3-0.3,0.3-0.5C2.8,17.4,2.9,17.2,3,17c0.1-0.2,0.3-0.4,0.5-0.6C3.8,16.2,4,16.1,4.3,16c0.5-0.2,1.3-0.2,1.8,0
					c0.2,0.1,0.5,0.2,0.7,0.3l0.7,1.6c0,0.3-0.1,0.6-0.2,0.8C7.1,19,7,19.2,6.7,19.4c-0.2,0.2-0.6,0.3-0.9,0.4
					C5.4,19.9,4.9,20,4.3,20H4.1v1.7h0.2c0.7,0,1.3,0.1,1.7,0.2c0.4,0.1,0.8,0.3,1,0.5c0.2,0.2,0.4,0.4,0.5,0.7
					c0.1,0.3,0.1,0.6,0.1,0.9c0,0.3-0.1,0.5-0.2,0.8c-0.1,0.3-0.3,0.5-0.5,0.7c-0.2,0.2-0.5,0.4-0.8,0.5C5.8,26,5.4,26.1,5,26.1
					c-0.5,0-0.8-0.1-1.1-0.2c-0.3-0.1-0.6-0.3-0.8-0.5c-0.2-0.2-0.4-0.4-0.5-0.6c-0.1-0.2-0.2-0.4-0.3-0.6l-0.1-0.2
					C2.1,24,2,23.9,1.9,23.8c-0.3-0.1-0.6-0.1-0.9,0L0,24.2l0.1,0.2c0.2,0.5,0.4,1,0.6,1.4c0.2,0.4,0.6,0.8,0.9,1.2
					C2,27.3,2.5,27.5,3,27.7C3.6,27.9,4.2,28,5,28c0.7,0,1.3-0.1,1.9-0.3c0.6-0.2,1.1-0.5,1.5-0.8c0.4-0.4,0.8-0.8,1.1-1.3
					c0.3-0.5,0.4-1.1,0.4-1.8c0-0.9-0.3-1.6-0.7-2.2C8.8,21.2,8.3,20.9,7.7,20.6z M22.5,18.1c-0.3-0.9-0.8-1.6-1.4-2.2
					c-0.6-0.6-1.3-1.1-2.2-1.4c-0.8-0.3-1.8-0.5-2.8-0.5H11v14h5.2c1,0,1.9-0.2,2.8-0.5c0.8-0.3,1.6-0.8,2.2-1.4
					c0.6-0.6,1.1-1.4,1.4-2.2C22.8,23,23,22,23,21C23,20,22.8,19,22.5,18.1z M20.4,23.1c-0.2,0.6-0.5,1.1-0.9,1.6
					c-0.4,0.4-0.9,0.7-1.4,1c-0.6,0.2-1.2,0.3-1.8,0.3h-2.9V15.9h2.9c0.7,0,1.3,0.1,1.8,0.3c0.5,0.2,1,0.6,1.4,1
					c0.4,0.4,0.7,1,0.9,1.6c0.2,0.6,0.3,1.4,0.3,2.2C20.7,21.8,20.6,22.5,20.4,23.1z"/>
			</g>
		</g>
	</g>
</g>
</svg>
