<?xml version="1.0" encoding="utf-8"?>
<!-- Generator: Adobe Illustrator 17.0.0, SVG Export Plug-In . SVG Version: 6.00 Build 0)  -->
<!DOCTYPE svg PUBLIC "-//W3C//DTD SVG 1.1//EN" "http://www.w3.org/Graphics/SVG/1.1/DTD/svg11.dtd">
<svg version="1.1" id="Calque_1" xmlns="http://www.w3.org/2000/svg" xmlns:xlink="http://www.w3.org/1999/xlink" x="0px" y="0px"
	 width="13px" height="12px" viewBox="0 0 13 12" enable-background="new 0 0 13 12" xml:space="preserve">
<g>
	<g>
		<path fill="#959A9B" d="M6.5,0C3.1,0,0,2.3,0,5.5c0,1.1,0.4,2.2,1.1,3.1c0,1-0.6,2.4-1.1,3.5c1.4-0.3,3.4-0.8,4.3-1.4
			c5,1.2,8.6-1.9,8.6-5.2C13,2.3,9.9,0,6.5,0z M3.7,6.4C3.2,6.4,2.8,6,2.8,5.5c0-0.5,0.4-0.9,0.9-0.9S4.6,5,4.6,5.5
			C4.6,6,4.2,6.4,3.7,6.4z M6.4,6.4C5.9,6.4,5.5,6,5.5,5.5c0-0.5,0.4-0.9,0.9-0.9c0.5,0,0.9,0.4,0.9,0.9C7.3,6,6.9,6.4,6.4,6.4z
			 M9,6.4C8.5,6.4,8.1,6,8.1,5.5C8.1,5,8.5,4.6,9,4.6c0.5,0,0.9,0.4,0.9,0.9C9.9,6,9.5,6.4,9,6.4z"/>
	</g>
</g>
</svg>
