<?xml version="1.0" encoding="utf-8"?>
<!-- Generator: Adobe Illustrator 17.0.0, SVG Export Plug-In . SVG Version: 6.00 Build 0)  -->
<!DOCTYPE svg PUBLIC "-//W3C//DTD SVG 1.1//EN" "http://www.w3.org/Graphics/SVG/1.1/DTD/svg11.dtd">
<svg version="1.1" id="Calque_1" xmlns="http://www.w3.org/2000/svg" xmlns:xlink="http://www.w3.org/1999/xlink" x="0px" y="0px"
	 width="18px" height="18px" viewBox="0 0 18 18" enable-background="new 0 0 18 18" xml:space="preserve">
<g>
	<path fill="#7D7E80" d="M9,0C4,0,0,4,0,9c0,5,4,9,9,9c5,0,9-4,9-9C18,4,14,0,9,0z M9,16.9c-4.3,0-7.9-3.5-7.9-7.9
		c0-4.3,3.5-7.9,7.9-7.9c4.3,0,7.9,3.5,7.9,7.9C16.9,13.3,13.3,16.9,9,16.9z M9,2C5.1,2,2,5.1,2,9s3.1,7,7,7c3.9,0,7-3.1,7-7
		S12.9,2,9,2z M9.1,14.1C8.5,14.1,8,13.6,8,13c0-0.6,0.5-1.1,1.1-1.1c0.6,0,1.1,0.5,1.1,1.1C10.2,13.6,9.7,14.1,9.1,14.1z M9.9,10.9
		v0.2c0,0-1.6,0-1.8,0v-0.2c0-0.6,0.1-1.3,0.7-1.9c0.6-0.6,1.4-1.1,1.4-1.9c0-0.8-0.6-1.3-1.3-1.3c-1.2,0-1.3,1.3-1.3,1.6H5.9
		c0-1.3,0.6-3.2,3.1-3.2c2.1,0,3.1,1.4,3.1,2.8C12.1,9.1,9.9,9.5,9.9,10.9z"/>
</g>
</svg>
