<?xml version="1.0" encoding="utf-8"?>
<!DOCTYPE svg PUBLIC "-//W3C//DTD SVG 1.1//EN" "http://www.w3.org/Graphics/SVG/1.1/DTD/svg11.dtd">
<svg version="1.1" id="Layer_1" xmlns="http://www.w3.org/2000/svg" xmlns:xlink="http://www.w3.org/1999/xlink" x="0px" y="0px"
	 width="25px" height="25px" viewBox="0 0 25 25" enable-background="new 0 0 25 25" xml:space="preserve">
<g>
	<title>Layer 1</title>
	<path id="svg_257" fill="#33C2C5" d="M14.661,22.219l-6.769-5.842l6.769-4.218c0,0,0,1.027,0,2.271
		c3.626-0.448,8.798-3.758,5.591-7.788c0.519,0.597,1.566,2.157,0.773,3.686C18.396,5.082,6.602,4.505,4.067,10.211
		c0.247,2,2.649,3.57,2.649,3.57v4.867c0,0-4.218-2.975-4.12-5.301c-0.049-0.865,0-4.759,0-4.759
		c2.695-8.948,24.119-7.634,19.423,6.491c-1.22,2.873-4.17,4.163-7.357,4.868C14.661,20.758,14.661,22.219,14.661,22.219z
		 M14.072,19.298c4.551-0.175,9.05-2.784,7.652-8.438c-1.271,2.708-3.961,4.179-7.652,4.219c0-0.433,0-1.622,0-1.622l-5.002,2.92
		l5.002,4.219C14.072,20.596,14.072,19.785,14.072,19.298z"/>
</g>
</svg>
