<?xml version="1.0" encoding="utf-8"?>
<!-- Generator: Adobe Illustrator 17.0.0, SVG Export Plug-In . SVG Version: 6.00 Build 0)  -->
<!DOCTYPE svg PUBLIC "-//W3C//DTD SVG 1.1//EN" "http://www.w3.org/Graphics/SVG/1.1/DTD/svg11.dtd">
<svg version="1.1" id="Calque_1" xmlns="http://www.w3.org/2000/svg" xmlns:xlink="http://www.w3.org/1999/xlink" x="0px" y="0px"
	 width="18px" height="18px" viewBox="0 0 18 18" enable-background="new 0 0 18 18" xml:space="preserve">
<path fill="#FFFFFF" d="M17.1,4.1c-0.6,0.3-1.2,0.4-1.9,0.5c0.7-0.4,1.2-1,1.5-1.8c-0.6,0.4-1.4,0.6-2.1,0.8c-0.6-0.6-1.5-1-2.4-1
	c-2.1,0-3.7,2-3.2,4C6.1,6.4,3.7,5.1,2,3.1c-0.9,1.5-0.5,3.4,1,4.4C2.5,7.5,2,7.3,1.5,7.1c0,1.5,1.1,2.9,2.7,3.2
	c-0.5,0.1-1,0.2-1.5,0.1c0.4,1.3,1.7,2.2,3.1,2.3c-1.4,1.1-3.2,1.6-4.9,1.4c1.5,0.9,3.2,1.5,5.1,1.5c6.2,0,9.7-5.1,9.4-9.7
	C16.1,5.3,16.7,4.7,17.1,4.1z"/>
</svg>
