<?xml version="1.0" encoding="utf-8"?>
<!-- Generator: Adobe Illustrator 17.0.0, SVG Export Plug-In . SVG Version: 6.00 Build 0)  -->
<!DOCTYPE svg PUBLIC "-//W3C//DTD SVG 1.1//EN" "http://www.w3.org/Graphics/SVG/1.1/DTD/svg11.dtd">
<svg version="1.1" xmlns="http://www.w3.org/2000/svg" xmlns:xlink="http://www.w3.org/1999/xlink" x="0px" y="0px" width="20px"
	 height="50px" viewBox="0 0 20 50" enable-background="new 0 0 20 50" xml:space="preserve">
<g id="Calque_1">
	<g>
		<path fill="#4E4E4E" d="M19.3,6.6l-14.1,2c0,0,1.7,2.8,1.6,7.4c-0.1,4.6-3.1,8.9-3.1,8.9L20,22.3c0,0-1.6-2.5-1.6-7.8
			C18.5,10.6,19.3,6.6,19.3,6.6z M11.9,0.2C9.4,0.6,7.4,3,7.4,5.6l0,1.6L9,7l0-1.6c0-1.7,1.3-3.2,2.8-3.4c1.6-0.2,2.8,1,2.8,2.6
			l0,1.6L16.4,6l0-1.6C16.4,1.7,14.4-0.1,11.9,0.2z M7.1,1.9C5.7,2.3,4.7,3.7,4.7,5.2l0,1.6L3,7.1V5.4c0-2.6,2-5,4.5-5.4
			C8,0,8.4,0,8.9,0.1C8.2,0.5,7.6,1.1,7.1,1.9z M0,22.8c0,0,2.6-3.9,2.7-8C2.9,10.7,1,7.3,1,7.3l2.6,1.2c0,0,2,3.3,1.8,7.5
			c-0.2,4.3-3.2,8.7-3.2,8.7L0,22.8z"/>
	</g>
</g>
<g id="Calque_2">
	<g>
		<path fill="#FFFFFF" d="M19.3,31.7l-14.1,2c0,0,1.7,2.8,1.6,7.4C6.7,45.7,3.7,50,3.7,50L20,47.4c0,0-1.6-2.5-1.6-7.8
			C18.5,35.7,19.3,31.7,19.3,31.7z M11.9,25.3c-2.5,0.3-4.5,2.8-4.5,5.4l0,1.6L9,32.2l0-1.6c0-1.7,1.3-3.2,2.8-3.4
			c1.6-0.2,2.8,1,2.8,2.6l0,1.6l1.6-0.2l0-1.6C16.4,26.9,14.4,25,11.9,25.3z M7.1,27c-1.3,0.4-2.4,1.8-2.4,3.3l0,1.6L3,32.2v-1.6
			c0-2.6,2-5,4.5-5.4c0.5-0.1,0.9-0.1,1.3,0C8.2,25.7,7.6,26.3,7.1,27z M0,47.9c0,0,2.6-3.9,2.7-8C2.9,35.8,1,32.4,1,32.4l2.6,1.2
			c0,0,2,3.3,1.8,7.5c-0.2,4.3-3.2,8.7-3.2,8.7L0,47.9z"/>
	</g>
</g>
</svg>
