<?xml version="1.0"?>
<svg width="289.5" height="80" xmlns="http://www.w3.org/2000/svg">
 <style type="text/css">.st0{fill:#FFFFFF;}
	.st1{fill:#7D7D7D;}
	.st2{fill-rule:evenodd;clip-rule:evenodd;fill:#7D7D7D;}
	.st3{fill:#7D7D80;}</style>

 <g>
  <title>background</title>
  <rect x="-1" y="-1" width="291.5" height="82" id="canvas_background" fill="none"/>
 </g>
 <g>
  <title>Layer 1</title>
  <g id="Calque_1">
   <g id="svg_1">
    <path class="st0" d="m16.4,8.3l-16.4,0l0,20.999999l20,0l0,-17.199999l-3.6,-3.8zm-2.7,3l0,3.8l-2,0l0,-3.8l2,0zm4.3,15.999999l-16,0l0,-16.9l3.2,0l0,5.9l9.8,0l0,-5.9l0.5,0l2.5,2.5l0,14.4l0,0z" id="svg_2"/>
    <path class="st0" d="m47,3.6c1.799999,0 3.200001,1.5 3.200001,3.3s-1.400002,3.3 -3.200001,3.3s-3.200001,-1.5 -3.200001,-3.3s1.400002,-3.3 3.200001,-3.3zm5.700001,25.199999l-10.700001,0l0,-1.5l1.299999,-0.5c0.700001,-0.299999 1.200001,-1 1.200001,-1.9l0,-7.799999c0,-0.800001 -0.5,-1.6 -1.200001,-1.900001l-1.299999,-0.4l0,-1.5l8.099998,0l0,11.7c0,0.799999 0.5,1.6 1.200001,1.9l1.299999,0.5l0,1.4l0.100002,0z" id="svg_3"/>
    <path class="st0" d="m90.099998,0c-6.599998,0 -12.299995,5.4 -12.299995,12.1c0,6.5 6.099998,11.799999 11.099998,12l0,4.4l5.799995,-5.5c4.100006,-1.9 7.100006,-6.1 7.100006,-11c0.099998,-6.6 -5.100006,-12 -11.700005,-12zm-5.900002,14.4c-0.899994,0 -1.699997,-0.799999 -1.699997,-1.7s0.800003,-1.7 1.699997,-1.7c0.900002,0 1.700005,0.8 1.700005,1.7c0,0.900001 -0.800003,1.7 -1.700005,1.7zm5.5,0c-1,0 -1.799995,-0.799999 -1.799995,-1.7s0.799995,-1.7 1.799995,-1.7s1.800003,0.8 1.800003,1.7c0,0.900001 -0.800003,1.7 -1.800003,1.7zm5.5,0c-1,0 -1.799995,-0.799999 -1.799995,-1.7s0.799995,-1.7 1.799995,-1.7s1.800003,0.8 1.800003,1.7c0,0.900001 -0.800003,1.7 -1.800003,1.7z" id="svg_4"/>
    <path class="st0" d="m136.699997,15.2l-13.5,12.3l26.900009,0l-13.400009,-12.3zm13.5,-3.599999l0,12.9l-7.699997,-7.1l5.800003,-4.4l-11.600006,-8.7l-11.599998,8.7l5.799995,4.4l-7.699997,7.1l0,-12.9l13.5,-10.1l13.5,10.1z" id="svg_5"/>
    <g id="svg_6">
     <path class="st0" d="m177.300003,4.6l0,1.5c2.399994,0 4.599991,1.6 5.800003,4.2l1.399994,3l1.399994,-3c1.200012,-2.5 3.300003,-4.1 5.800003,-4.1c2.800003,0 5.600006,2 5.600006,6.6c0,3.099999 -2.199997,4.599999 -5.600006,6.599999c-0.699997,0.4 -1.399994,0.800001 -2,1.200001c-1.800003,1.199999 -3.699997,2.799999 -5.099991,4.4c-1.200012,-1.4 -3,-3.1 -5.200012,-4.4c-0.5,-0.300001 -1.099991,-0.6 -1.699997,-1c-3,-1.700001 -6,-3.4 -6,-6.8c0,-4.6 2.900009,-6.7 5.600006,-6.7l0,-1.5m0,0c-3.600006,0 -7.100006,2.9 -7.100006,8.2c0,5.099999 5,6.999999 8.400009,8.999999c3.299988,2 5.599991,4.700001 5.899994,5.800001c0.300003,-1.1 2.899994,-3.9 5.899994,-5.9c3.300003,-2.200001 8.400009,-3.900002 8.400009,-9.1c0,-5.3 -3.5,-8 -7.100006,-8c-2.800003,0 -5.599991,1.6 -7.199997,4.9c-1.699997,-3.3 -4.5,-4.9 -7.199997,-4.9l0,0z" id="svg_7"/>
    </g>
    <g id="svg_8">
     <path class="st0" d="m234,14.3c-4.100006,0 -7.5,3.400001 -7.5,7.499999s3.399994,7.5 7.5,7.5s7.5,-3.4 7.5,-7.5c0,-4.199999 -3.399994,-7.499999 -7.5,-7.499999zm2,9.7c0,0.5 -0.800003,0.299999 -1.199997,0.299999l-3.699997,0c-0.5,0 -0.800003,-0.5 -0.800003,-1s0.399994,-1 0.800003,-1l2.899994,0l0,-4.099998c0,-0.5 0.5,-0.900002 1,-0.900002s1,0.400002 1,0.900002l0,5.799999z" id="svg_9"/>
     <path class="st0" d="m222.5,9.1l1.600006,-0.200001l0,-1.599999c0,-1.7 1.299988,-3.2 2.799988,-3.4c1.600006,-0.2 2.800003,1 2.800003,2.6l0,1.6l1.600006,-0.2l0,-1.6c0,-2.6 -2,-4.5 -4.5,-4.1c-2.5,0.3 -4.5,2.8 -4.5,5.4l0.199997,1.5z" id="svg_10"/>
     <path class="st0" d="m219.800003,7c0,-1.5 1,-2.9 2.399994,-3.3c0.5,-0.7 1.100006,-1.4 1.800003,-1.8c-0.399994,-0.1 -1,-0.1 -1.399994,0c-2.5,0.3 -4.600006,2.8 -4.600006,5.4l0,1.599999l1.699997,-0.2l0.100006,-1.7z" id="svg_11"/>
     <path class="st0" d="m233.800003,12.6c0.199997,-2.400001 0.599991,-4.200001 0.599991,-4.200001l-14.099991,2c0,0 1.699997,2.8 1.599991,7.4c-0.099991,4.6 -3.099991,8.900002 -3.099991,8.900002l6.899994,-1.1c-0.5,-1.200001 -0.899994,-2.5 -0.899994,-3.800001c0,-5 4,-9.099999 9,-9.199999z" id="svg_12"/>
     <path class="st0" d="m218.699997,10.3l-2.599991,-1.2c0,0 1.899994,3.4 1.799988,7.5c-0.099991,4.1 -2.699997,8 -2.699997,8l2.199997,2c0,0 3,-4.4 3.200012,-8.700001c0.199997,-4.299999 -1.900009,-7.599999 -1.900009,-7.599999z" id="svg_13"/>
    </g>
   </g>
  </g>
  <g id="Calque_2">
   <g id="svg_14">
    <path class="st1" d="m16.4,58.799999l-16.4,0l0,21.000004l20,0l0,-17.300003l-3.6,-3.700001zm-2.7,3l0,3.799999l-2,0l0,-3.799999l2,0zm4.3,16.000004l-16,0l0,-16.900002l3.2,0l0,5.900002l9.8,0l0,-5.900002l0.5,0l2.5,2.5l0,14.400002l0,0z" id="svg_15"/>
    <path class="st1" d="m47,54.099998c1.799999,0 3.200001,1.5 3.200001,3.300003c0,1.799999 -1.400002,3.299999 -3.200001,3.299999c-1.799999,0 -3.200001,-1.5 -3.200001,-3.299999c0,-1.800003 1.400002,-3.300003 3.200001,-3.300003zm5.700001,25.099998l-10.700001,0l0,-1.5l1.299999,-0.5c0.700001,-0.299995 1.200001,-1 1.200001,-1.899994l0,-7.800003c0,-0.800003 -0.5,-1.599998 -1.200001,-1.900002l-1.299999,-0.400002l0,-1.499996l8.099998,0l0,11.700001c0,0.799995 0.5,1.599998 1.200001,1.900002l1.299999,0.5l0,1.399994l0.100002,0z" id="svg_16"/>
    <path class="st2" d="m90.099998,50.700001c-6.599998,0 -12.099998,5.399998 -12.099998,12.099998c0,6.500004 6.199997,11.799999 11.199997,12.000004l0,4.399994l5.700005,-5.5c4.099998,-1.899994 7.099998,-6.099998 7.099998,-10.999996c0,-6.600002 -5.300003,-12 -11.900002,-12zm-5.900002,14.399998c-0.899994,0 -1.699997,-0.799995 -1.699997,-1.699997c0,-0.900002 0.800003,-1.700001 1.699997,-1.700001s1.700005,0.799999 1.700005,1.700001c0,1 -0.800003,1.699997 -1.700005,1.699997zm5.5,0c-1,0 -1.799995,-0.799995 -1.799995,-1.699997c0,-0.900002 0.799995,-1.700001 1.799995,-1.700001c1,0 1.800003,0.799999 1.800003,1.700001c0,1 -0.800003,1.699997 -1.800003,1.699997zm5.5,0c-1,0 -1.799995,-0.799995 -1.799995,-1.699997c0,-0.900002 0.799995,-1.700001 1.799995,-1.700001c1,0 1.800003,0.799999 1.800003,1.700001c0,1 -0.800003,1.699997 -1.800003,1.699997z" id="svg_17"/>
    <path class="st1" d="m136.699997,65.699997l-13.5,12.300003l26.900009,0l-13.400009,-12.300003zm13.5,-3.599998l0,12.900002l-7.699997,-7.099998l5.800003,-4.400002l-11.600006,-8.700001l-11.599998,8.700001l5.799995,4.400002l-7.699997,7.099998l0,-13l13.5,-10l13.5,10.099998z" id="svg_18"/>
    <g id="svg_19">
     <g id="svg_20">
      <path class="st3" d="m177.300003,55.099998l0,1c2.599991,0 4.899994,1.700001 6.199997,4.5l0.899994,2l0.900009,-2c1.300003,-2.699997 3.599991,-4.399998 6.300003,-4.399998c2.899994,0 6.099991,2.200001 6.099991,7c0,3.600002 -3,5.299999 -5.899994,6.999996c-0.699997,0.400002 -1.400009,0.800003 -2,1.200005c-2.100006,1.400002 -4.199997,3.299995 -5.400009,4.799995c-1.099991,-1.5 -3.099991,-3.299995 -5.399994,-4.699997c-0.5,-0.300003 -1.100006,-0.599998 -1.600006,-0.900002c-3.099991,-1.699997 -6.299988,-3.5 -6.199997,-7.199997c0,-5 3.199997,-7.200001 6.100006,-7.200001l0,-1.100002m0,0c-3.600006,0 -7.100006,2.900002 -7.100006,8.200001c0,5.100002 5,7.000004 8.400009,9.000004c3.299988,2 5.599991,4.699997 5.899994,5.799995c0.300003,-1.099998 2.899994,-3.900002 5.899994,-5.900002c3.300003,-2.199997 8.400009,-3.899994 8.400009,-8.999996c0,-5.299999 -3.5,-8 -7.100006,-8c-2.800003,0 -5.599991,1.599998 -7.199997,4.899998c-1.699997,-3.399998 -4.5,-5 -7.199997,-5l0,0z" id="svg_21"/>
     </g>
    </g>
    <g id="svg_22">
     <path class="st1" d="m234,65c-4.100006,0 -7.5,3.400002 -7.5,7.5c0,4.099998 3.399994,7.5 7.5,7.5c4.100006,0 7.5,-3.400002 7.5,-7.5c0,-4.099998 -3.399994,-7.5 -7.5,-7.5zm2.300003,9.699997c0,0.5 -1,0 -1.5,0l-3.699997,0c-0.5,0 -0.800003,-0.5 -0.800003,-1c0,-0.5 0.399994,-1 0.800003,-1l3.199997,0l0,-3.799995c0,-0.5 0.5,-0.900002 1,-0.900002c0.5,0 1,0.400002 1,0.900002l0,5.799995z" id="svg_23"/>
     <path class="st1" d="m222.5,59.799999l1.600006,-0.200001l0,-1.599998c0,-1.700001 1.299988,-3.200001 2.799988,-3.400002c1.600006,-0.199997 2.800003,1 2.800003,2.600002l0,1.599998l1.600006,-0.200001l0,-1.599998c0,-2.599998 -2,-4.5 -4.5,-4.099998c-2.5,0.299999 -4.5,2.799999 -4.5,5.399998l0.199997,1.5z" id="svg_24"/>
     <path class="st1" d="m219.800003,57.700001c0,-1.5 1,-2.900002 2.399994,-3.299999c0.5,-0.700001 1.100006,-1.400002 1.800003,-1.800003c-0.399994,-0.099998 -0.800003,-0.099998 -1.300003,0c-2.5,0.300003 -4.399994,2.800003 -4.399994,5.400002l0,1.599998l1.599991,-0.199997l-0.099991,-1.700001z" id="svg_25"/>
     <path class="st1" d="m233.800003,63.299999c0.199997,-2.399998 0.599991,-4.200001 0.599991,-4.200001l-14.099991,2c0,0 1.699997,2.800003 1.599991,7.400002c-0.099991,4.599998 -3.099991,8.900002 -3.099991,8.900002l6.899994,-1.099998c-0.5,-1.200005 -0.899994,-2.5 -0.899994,-3.800003c0,-5 4,-9.099998 9,-9.200001z" id="svg_26"/>
     <path class="st1" d="m218.699997,61l-2.599991,-1.200001c0,0 1.899994,3.400002 1.799988,7.500004c-0.099991,4.099998 -2.699997,8 -2.699997,8l2.199997,2c0,0 3,-4.400002 3.200012,-8.700005c0.199997,-4.299995 -1.900009,-7.599998 -1.900009,-7.599998z" id="svg_27"/>
    </g>
   </g>
  </g>
  <text fill="#7a7171" stroke-width="0" x="251.25" y="66" id="svg_28" font-size="24" font-family="Helvetica, Arial, sans-serif" text-anchor="left" xml:space="preserve" font-weight="bold" transform="matrix(0.677641 0 0 1.35714 79.9077 -14.7143)" stroke="#282829" stroke-opacity="0">&lt;/&gt;</text>
 </g>
</svg>