<?xml version="1.0" encoding="utf-8"?>
<!-- Generator: Adobe Illustrator 17.0.0, SVG Export Plug-In . SVG Version: 6.00 Build 0)  -->
<!DOCTYPE svg PUBLIC "-//W3C//DTD SVG 1.1//EN" "http://www.w3.org/Graphics/SVG/1.1/DTD/svg11.dtd">
<svg version="1.1" id="Calque_1" xmlns="http://www.w3.org/2000/svg" xmlns:xlink="http://www.w3.org/1999/xlink" x="0px" y="0px"
	 width="22px" height="12.1px" viewBox="0 0 22 12.1" enable-background="new 0 0 22 12.1" xml:space="preserve">
<path fill="#4E4E4E" d="M12.9,6.1c0,1-0.8,1.8-1.8,1.8c-1,0-1.8-0.8-1.8-1.8c0-1,0.8-1.8,1.8-1.8C12.1,4.3,12.9,5.1,12.9,6.1z M11,0
	c7,0,10.9,5.7,10.9,5.7s-3.9,6.5-10.9,6.5c-6.5,0-10.9-6.5-10.9-6.5S4.1,0,11,0 M15.4,6.1c0-2.3-1.9-4.3-4.2-4.3
	c-2.3,0-4.2,1.9-4.2,4.3c0,2.3,1.9,4.3,4.2,4.3C13.5,10.3,15.4,8.4,15.4,6.1z"/>
</svg>
