<?xml version="1.0" encoding="utf-8"?>
<!-- Generator: Adobe Illustrator 17.0.0, SVG Export Plug-In . SVG Version: 6.00 Build 0)  -->
<!DOCTYPE svg PUBLIC "-//W3C//DTD SVG 1.1//EN" "http://www.w3.org/Graphics/SVG/1.1/DTD/svg11.dtd">
<svg version="1.1" id="Calque_1" xmlns="http://www.w3.org/2000/svg" xmlns:xlink="http://www.w3.org/1999/xlink" x="0px" y="0px"
	 width="18px" height="18px" viewBox="0 0 18 18" enable-background="new 0 0 18 18" xml:space="preserve">
<path fill="#FFFFFF" d="M15.9,6.3h-2.3V4.2l0.5-1.7v-2H11c0,0-0.8,1.8-1.1,2.5C8.9,5.3,7.9,7.7,5.9,8.1v-1H0v10.1h5.9v-0.9h2
	l2.2,1.2h5.4l2.5-2.2V7.6L15.9,6.3z M10.5,16.2L8.3,15l-2.4,0V9.4c0,0,0,0,0.1,0c2.8-0.4,4-3.3,5-5.9c0.2-0.5,0.6-1.4,0.7-1.7h1.1
	v0.7l-0.5,1.7v3.4h3.2l1.2,0.7v6.5l-1.6,1.4H10.5L10.5,16.2z"/>
</svg>
