<?xml version="1.0" encoding="utf-8"?>
<!-- Generator: Adobe Illustrator 17.0.0, SVG Export Plug-In . SVG Version: 6.00 Build 0)  -->
<!DOCTYPE svg PUBLIC "-//W3C//DTD SVG 1.1//EN" "http://www.w3.org/Graphics/SVG/1.1/DTD/svg11.dtd">
<svg version="1.1" id="Calque_1" xmlns="http://www.w3.org/2000/svg" xmlns:xlink="http://www.w3.org/1999/xlink" x="0px" y="0px"
	 width="17.1px" height="36px" viewBox="0 0 17.1 36" enable-background="new 0 0 17.1 36" xml:space="preserve">
<g>
	<g>
		<path fill="#4E4E4E" d="M4.3,1.5c1.2,0,2.3,0.8,2.9,2.2l1.4,3.1l1.4-3.1c0.6-1.4,1.7-2.2,2.9-2.2c1.4,0,2.7,1.1,2.8,3.5
			c0,1.6-1.2,2.4-3.1,3.6c-0.4,0.3-0.9,0.5-1.3,0.8c-0.9,0.6-1.9,1.5-2.7,2.3c-0.8-0.8-1.7-1.6-2.8-2.3c-0.3-0.2-0.7-0.4-1-0.6
			c-2.1-1.2-3.3-2-3.3-3.7C1.5,2.6,3,1.5,4.3,1.5L4.3,1.5 M4.3,0C2.1,0,0,1.8,0,5.1c0,3.2,3,4.4,5,5.6c2,1.2,3.3,2.9,3.6,3.6
			c0.2-0.7,1.7-2.4,3.5-3.7c2-1.3,5-2.5,5-5.6c0-3.3-2.1-5-4.3-5c-1.7,0-3.4,1-4.3,3.1C7.6,1,5.9,0,4.3,0L4.3,0z"/>
	</g>
	<g>
		<path fill-rule="evenodd" clip-rule="evenodd" fill="#F37476" d="M8.6,24.8c-2.2-5-8.5-3.8-8.6,2c0,3.2,3,4.4,5,5.6
			c2,1.2,3.3,2.9,3.6,3.6c0.2-0.7,1.7-2.4,3.5-3.7c2-1.3,5-2.5,5-5.6C17.1,21,10.7,20,8.6,24.8z"/>
	</g>
</g>
</svg>
