<?xml version="1.0" encoding="utf-8"?>
<!-- Generator: Adobe Illustrator 17.0.0, SVG Export Plug-In . SVG Version: 6.00 Build 0)  -->
<!DOCTYPE svg PUBLIC "-//W3C//DTD SVG 1.1//EN" "http://www.w3.org/Graphics/SVG/1.1/DTD/svg11.dtd">
<svg version="1.1" id="Calque_1" xmlns="http://www.w3.org/2000/svg" xmlns:xlink="http://www.w3.org/1999/xlink" x="0px" y="0px"
	 width="18px" height="18px" viewBox="0 0 18 18" enable-background="new 0 0 18 18" xml:space="preserve">
<path fill="#FFFFFF" d="M16.2,6.1c0-2.9-2.7-5.6-6.8-5.6c-5.1,0-7.6,3.4-7.6,6.1c0,1.7,0.7,3.2,2.2,3.8c0.2,0.1,0.5,0,0.5-0.2
	c0-0.2,0.2-0.6,0.2-0.8c0.1-0.2,0-0.3-0.2-0.5C4.1,8.3,3.9,7.7,3.9,6.8c0-2.5,2-4.7,5.3-4.7c2.9,0,4.5,1.6,4.5,3.8
	c0,2.8-1.4,5.2-3.4,5.2c-1.1,0-2-0.9-1.7-1.9C8.8,8,9.5,6.6,9.5,5.7C9.5,4.9,9,4.3,8,4.3C6.9,4.3,6,5.3,6,6.8c0,0.9,0.3,1.6,0.3,1.6
	s-1.2,4.6-1.4,5.4c-0.4,1.6-0.1,3.5,0,3.7c0,0.1,0.2,0.1,0.3,0.1c0.1-0.1,1.5-1.7,1.9-3.2c0.1-0.4,0.8-2.7,0.8-2.7
	c0.4,0.7,1.5,1.2,2.6,1.2C13.9,12.8,16.2,9.9,16.2,6.1"/>
</svg>
