<?xml version="1.0" encoding="utf-8"?>
<!-- Generator: Adobe Illustrator 17.0.0, SVG Export Plug-In . SVG Version: 6.00 Build 0)  -->
<!DOCTYPE svg PUBLIC "-//W3C//DTD SVG 1.1//EN" "http://www.w3.org/Graphics/SVG/1.1/DTD/svg11.dtd">
<svg version="1.1" id="Calque_1" xmlns="http://www.w3.org/2000/svg" xmlns:xlink="http://www.w3.org/1999/xlink" x="0px" y="0px"
	 width="68px" height="40px" viewBox="0 0 68 40" style="enable-background:new 0 0 68 40;" xml:space="preserve">
<style type="text/css">
	.st0{fill:#4E4E4E;}
	.st1{fill:#FFCD64;}
</style>
<g>
	<path class="st0" d="M58.6,3.6l1.2,2.7L60.2,7L61,7.1l3,0.4l-2.2,2.2l-0.5,0.5l0.1,0.8l0.5,3.1l-2.5-1.4l-0.7-0.4l-0.7,0.4
		l-2.5,1.4l0.5-3.1l0.1-0.8l-0.5-0.5l-2.2-2.2l3-0.4L57,7l0.3-0.7L58.6,3.6 M58.6,0L56,5.6l-5.9,0.9l4.3,4.3l-1,6.2l5.3-3l5.3,3
		l-1-6.2l4.3-4.3l-5.9-0.9L58.6,0L58.6,0z"/>
</g>
<g>
	<path class="st0" d="M8.5,0l2.6,5.6L17,6.5l-4.3,4.3l1,6.2l-5.3-3l-5.3,3l1-6.2L0,6.5l5.9-0.9L8.5,0z"/>
</g>
<g>
	<path class="st0" d="M33.8,0v14l-5.3,3l1-6.2l-4.3-4.3l5.9-0.9L33.8,0z"/>
</g>
<g>
	<path class="st0" d="M33.8,3.6L35,6.3L35.4,7l0.8,0.1l3,0.4l-2.2,2.2l-0.5,0.5l0.1,0.8l0.5,3.1l-2.5-1.4l-0.7-0.4L33,12.7l-2.5,1.4
		l0.5-3.1l0.1-0.8l-0.5-0.5l-2.2-2.2l3-0.4L32.2,7l0.3-0.7L33.8,3.6 M33.8,0l-2.6,5.6l-5.9,0.9l4.3,4.3l-1,6.2l5.3-3l5.3,3l-1-6.2
		l4.3-4.3l-5.9-0.9L33.8,0L33.8,0z"/>
</g>
<g>
	<g>
		<path class="st1" d="M58.6,26.6l1.2,2.7l0.3,0.7l0.8,0.1l3,0.4l-2.2,2.2l-0.5,0.5l0.1,0.8l0.5,3.1l-2.5-1.4l-0.7-0.4l-0.7,0.4
			l-2.5,1.4l0.5-3.1l0.1-0.8l-0.5-0.5l-2.2-2.2l3-0.4L57,30l0.3-0.7L58.6,26.6 M58.6,23L56,28.6l-5.9,0.9l4.3,4.3l-1,6.2l5.3-3
			l5.3,3l-1-6.2l4.3-4.3l-5.9-0.9L58.6,23L58.6,23z"/>
	</g>
	<g>
		<path class="st1" d="M8.5,23l2.6,5.6l5.9,0.9l-4.3,4.3l1,6.2l-5.3-3l-5.3,3l1-6.2L0,29.5l5.9-0.9L8.5,23z"/>
	</g>
	<g>
		<path class="st1" d="M33.8,23v14l-5.3,3l1-6.2l-4.3-4.3l5.9-0.9L33.8,23z"/>
	</g>
	<g>
		<path class="st1" d="M33.8,26.6l1.2,2.7l0.3,0.7l0.8,0.1l3,0.4l-2.2,2.2l-0.5,0.5l0.1,0.8l0.5,3.1l-2.5-1.4l-0.7-0.4L33,35.7
			l-2.5,1.4l0.5-3.1l0.1-0.8l-0.5-0.5l-2.2-2.2l3-0.4l0.8-0.1l0.3-0.7L33.8,26.6 M33.8,23l-2.6,5.6l-5.9,0.9l4.3,4.3l-1,6.2l5.3-3
			l5.3,3l-1-6.2l4.3-4.3l-5.9-0.9L33.8,23L33.8,23z"/>
	</g>
</g>
</svg>
