<?xml version="1.0" encoding="utf-8"?>
<!-- Generator: Adobe Illustrator 17.0.0, SVG Export Plug-In . SVG Version: 6.00 Build 0)  -->
<!DOCTYPE svg PUBLIC "-//W3C//DTD SVG 1.1//EN" "http://www.w3.org/Graphics/SVG/1.1/DTD/svg11.dtd">
<svg version="1.1" id="Calque_1" xmlns="http://www.w3.org/2000/svg" xmlns:xlink="http://www.w3.org/1999/xlink" x="0px" y="0px"
	 width="118px" height="17px" viewBox="0 0 118 17" enable-background="new 0 0 118 17" xml:space="preserve">
<g>
	<path fill="#4E4E4E" d="M8.5,3.6l1.2,2.7L10.1,7l0.8,0.1l3,0.4l-2.2,2.2l-0.5,0.5l0.1,0.8l0.5,3.1l-2.5-1.4l-0.7-0.4l-0.7,0.4
		l-2.5,1.4l0.5-3.1l0.1-0.8L5.4,9.8L3.2,7.6l3-0.4L6.9,7l0.3-0.7L8.5,3.6 M8.5,0L5.9,5.6L0,6.5l4.3,4.3l-1,6.2l5.3-3l5.3,3l-1-6.2
		L17,6.5l-5.9-0.9L8.5,0L8.5,0z"/>
	<g>
		<path fill="#4E4E4E" d="M54.7,13l-0.4-2.3L55,10l3.6-3.6l-5.9-0.9l-2.6-5.6l-2.6,5.6l-5.9,0.9l3.6,3.6l0.7,0.7L45.5,13L45,16
			l-0.1,0.9l1.6-0.9l3.7-2.1l3.7,2.1l1.6,0.9L55.2,16L54.7,13z M47,9.7l-2.2-2.2l3-0.4l0.8-0.1l0.3-0.7l1.2-2.7l1.2,2.7l0.3,0.7
			L52.5,7l3,0.4l-2.2,2.2L52.9,10h-5.6L47,9.7z"/>
		<path fill="#4E4E4E" d="M77.7,7l0.6-0.6l-5.9-0.9l-2.6-5.6l-2.6,5.6l-5.9,0.9L61.9,7l3,3l0.7,0.7L65.2,13l-0.5,3l-0.1,0.9l1.6-0.9
			l3.7-2.1l3.7,2.1l1.6,0.9L74.9,16l-0.5-3L74,10.7l0.7-0.7L77.7,7z M67.4,7l0.8-0.1l0.3-0.7l1.2-2.7l1.2,2.7l0.3,0.7L72.2,7l0,0
			L67.4,7L67.4,7z"/>
	</g>
	<polygon fill="#4E4E4E" points="117.1,7 117.8,6.4 111.9,5.5 111.2,4 109.8,1 109.3,-0.1 108.7,1 107.4,4 106.7,5.5 101.6,6.2 
		100.8,6.4 101.6,7.2 104.4,10 105.1,10.7 104.7,13 104.2,16 104,16.9 105.6,16 109.3,13.9 113,16 114.5,16.9 114.4,16 113.9,13 
		113.5,10.7 114.2,10 	"/>
	<path fill="#4E4E4E" d="M97.4,7L98,6.4l-5.9-0.9L91.4,4l-1.9-4.1L87.6,4l-0.7,1.5l-5.3,0.8l-0.4,0.1L82,6.9V7h-0.3l3,3l0.7,0.7
		L84.9,13l-0.5,3l-0.1,0.9l1.6-0.9l3.7-2.1l3.7,2.1l1.6,0.9L94.6,16l-0.5-3l-0.4-2.3l0.7-0.7L97.4,7z M89.5,3.5L89.8,4l1,2.1L90.3,5
		h-1.4l-0.5,1.1l1-2.1L89.5,3.5z"/>
	<path fill="#4E4E4E" d="M32.7,13l-0.4-2.3L33,10l3.6-3.6l-5.9-0.9l-2.6-5.6l-2.6,5.6l-5.9,0.9l3.6,3.6l0.7,0.7L23.5,13L23,16
		l-0.1,0.9l1.6-0.9l3.7-2.1l3.7,2.1l1.6,0.9L33.2,16L32.7,13z M25,9.7l-2.2-2.2l3-0.4l0.8-0.1l0.3-0.7l1.2-2.7l1.2,2.7l0.3,0.7
		L30.5,7l3,0.4l-2.2,2.2L30.9,10l-0.2,0.2l0.1,0.8l0.3,2L31,12h-5.8l0.2-1l0.1-0.8L25.3,10L25,9.7z"/>
</g>
</svg>
