<?xml version="1.0" encoding="utf-8"?>
<!-- Generator: Adobe Illustrator 17.0.0, SVG Export Plug-In . SVG Version: 6.00 Build 0)  -->
<!DOCTYPE svg PUBLIC "-//W3C//DTD SVG 1.1//EN" "http://www.w3.org/Graphics/SVG/1.1/DTD/svg11.dtd">
<svg version="1.1" id="Calque_1" xmlns="http://www.w3.org/2000/svg" xmlns:xlink="http://www.w3.org/1999/xlink" x="0px" y="0px"
	 width="112px" height="24px" viewBox="0 0 112 24" enable-background="new 0 0 112 24" xml:space="preserve">
<g>
    <path fill="#7D7E80" d="M19.3,6.6l-14.1,2c0,0,1.7,2.8,1.6,7.4c-0.1,4.6-3.1,8.9-3.1,8.9L20,22.3c0,0-1.6-2.5-1.6-7.8
	    C18.5,10.6,19.3,6.6,19.3,6.6z M11.9,0.2C9.4,0.6,7.4,3,7.4,5.6l0,1.6L9,7l0-1.6c0-1.7,1.3-3.2,2.8-3.4c1.6-0.2,2.8,1,2.8,2.6
	    l0,1.6L16.4,6l0-1.6C16.4,1.7,14.4-0.1,11.9,0.2z M7.1,1.9C5.7,2.3,4.7,3.7,4.7,5.2l0,1.6L3,7.1V5.4c0-2.6,2-5,4.5-5.4
	    C8,0,8.4,0,8.9,0.1C8.2,0.5,7.6,1.1,7.1,1.9z M0,22.8c0,0,2.6-3.9,2.7-8C2.9,10.7,1,7.3,1,7.3l2.6,1.2c0,0,2,3.3,1.8,7.5
	    c-0.2,4.3-3.2,8.7-3.2,8.7L0,22.8z"/>
  <text xml:space="preserve" text-anchor="middle" font-family="serif" font-size="24" id="svg_5" y="20" x="57.128127" stroke-linecap="null" stroke-linejoin="null" stroke-width="0" stroke="#000000" fill="#7D7E80">H</text>
	<path fill="#7D7E80" d="M99.8,0.3c-6.6,0-12,5.4-12,12s5.4,12,12,12c6.6,0,12-5.4,12-12S106.4,0.3,99.8,0.3z M102.4,22.8
		c-0.8,0.2-1.7,0.4-2.6,0.4c-0.9,0-1.8-0.1-2.6-0.4c-0.9-0.7-1.4-1.8-1.4-3.1c0-2.2,1.8-4,4-4c2.2,0,4,1.8,4,4
		C103.8,21,103.3,22.1,102.4,22.8z M104.3,21.5c0.4-0.7,0.6-1.6,0.6-2.5c0-2.9-2.3-5.2-5.2-5.2c-2.9,0-5.2,2.3-5.2,5.2
		c0,0.9,0.2,1.7,0.6,2.5c-1-1.1-1.6-2.5-1.6-4.1c0-3.4,2.7-6.1,6.1-6.1c3.4,0,6.1,2.7,6.1,6.1C105.9,19,105.3,20.5,104.3,21.5z
		 M106.8,20c0.5-1.1,0.8-2.2,0.8-3.5c0-4.3-3.5-7.9-7.9-7.9c-4.3,0-7.9,3.5-7.9,7.9c0,1.3,0.3,2.4,0.8,3.5c-1.4-1.6-2.3-3.8-2.3-6.1
		c0-5.2,4.2-9.3,9.3-9.3c5.2,0,9.3,4.2,9.3,9.3C109.1,16.2,108.3,18.3,106.8,20z"/>
</g>
</svg>
