<?xml version="1.0" encoding="utf-8"?>
<!-- Generator: Adobe Illustrator 17.0.0, SVG Export Plug-In . SVG Version: 6.00 Build 0)  -->
<!DOCTYPE svg PUBLIC "-//W3C//DTD SVG 1.1//EN" "http://www.w3.org/Graphics/SVG/1.1/DTD/svg11.dtd">
<svg version="1.1" id="Calque_1" xmlns="http://www.w3.org/2000/svg" xmlns:xlink="http://www.w3.org/1999/xlink" x="0px" y="0px"
	 width="46px" height="46px" viewBox="0 0 46 46" enable-background="new 0 0 46 46" xml:space="preserve">
<g>
	<g>
		<g>
			<g>
				<polygon fill="#D6D4CF" points="30.7,10.6 24.2,10.6 27.4,13.9 				"/>
				<path fill="#D6D4CF" d="M32.6,13.2l-3,3c1.7,1.7,2.8,4.1,2.8,6.8c0,5.3-4.3,9.6-9.6,9.6c-2.6,0-5-1-6.8-2.8
					c-0.4-0.4-0.9-0.6-1.5-0.6s-1.1,0.2-1.5,0.6c-0.8,0.8-0.8,2.2,0,3c2.6,2.6,6.1,4,9.7,4c7.6,0,13.8-6.2,13.8-13.8
					C36.7,19.2,35.1,15.7,32.6,13.2z"/>
			</g>
		</g>
		<path fill="#D6D4CF" d="M30.3,37.2"/>
	</g>
	<path fill="#D6D4CF" d="M23,0.2C10.4,0.2,0.2,10.4,0.2,23c0,12.6,10.2,22.8,22.8,22.8c0.1,0,0.3,0,0.4,0l0.1,0l0,0
		C35.9,45.6,45.8,35.5,45.8,23C45.8,10.4,35.6,0.2,23,0.2z M29.1,40.2l-5.7,5.6v-4.6c-0.1,0-0.3,0-0.4,0C12.9,41.3,4.7,33.1,4.7,23
		S12.9,4.7,23,4.7c10.1,0,18.3,8.2,18.3,18.3C41.3,31,36.2,37.7,29.1,40.2z"/>
</g>
</svg>
