<?xml version="1.0" encoding="utf-8"?>
<!-- Generator: Adobe Illustrator 17.0.0, SVG Export Plug-In . SVG Version: 6.00 Build 0)  -->
<!DOCTYPE svg PUBLIC "-//W3C//DTD SVG 1.1//EN" "http://www.w3.org/Graphics/SVG/1.1/DTD/svg11.dtd">
<svg version="1.1" id="Calque_1" xmlns="http://www.w3.org/2000/svg" xmlns:xlink="http://www.w3.org/1999/xlink" x="0px" y="0px"
	 width="196.8px" height="46px" viewBox="0 0 196.8 46" enable-background="new 0 0 196.8 46" xml:space="preserve">
<g>
	<g>
		<g>
			<g>
				<path fill="#012e31" d="M136.5,3.3c-7.1,0-12.9,5.8-12.9,12.9s5.8,12.9,12.9,12.9c3.4,0,6.7-1.3,9.1-3.8c0.8-0.8,0.8-2,0-2.8
					c-0.4-0.4-0.9-0.6-1.4-0.6s-1,0.2-1.4,0.6c-1.7,1.7-3.9,2.6-6.3,2.6c-4.9,0-9-4-9-9s4-9,9-9c4.2,0,7.8,2.9,8.7,7h-8.7
					c-1.1,0-2,0.9-2,2s0.9,2,2,2h10.9c1.1,0,2-0.9,2-2C149.4,9.1,143.6,3.3,136.5,3.3z"/>
				<path fill="#012e31" d="M165,3.3c-7.1,0-12.9,5.8-12.9,12.9s5.8,12.9,12.9,12.9c3.4,0,6.7-1.3,9.1-3.8c0.4-0.4,0.6-0.9,0.6-1.4
					c0-0.5-0.2-1-0.6-1.4c-0.4-0.4-0.9-0.6-1.4-0.6s-1,0.2-1.4,0.6c-1.7,1.7-3.9,2.6-6.3,2.6c-4.9,0-9-4-9-9s4-9,9-9
					c4.2,0,7.8,2.9,8.7,7H165c-1.1,0-2,0.9-2,2s0.9,2,2,2h10.9c1.1,0,2-0.9,2-2C177.9,9.1,172.1,3.3,165,3.3z"/>
				<path fill="#012e31" d="M194.3,25.1c-4.9,0-9-4-9-9V4.8c0-1.1-0.9-2-2-2c-1.1,0-2,0.9-2,2v11.4c0,7.1,5.8,12.9,12.9,12.9
					c1.1,0,2-0.9,2-2C196.3,26,195.4,25.1,194.3,25.1z"/>
				<path fill="#012e31" d="M79.4,2.8c-1.1,0-2,0.9-2,2v11.4c0,4.9-4,9-9,9c-2.4,0-4.6-0.9-6.3-2.6c-0.4-0.4-0.9-0.6-1.4-0.6
					s-1,0.2-1.4,0.6c-0.4,0.4-0.6,0.9-0.6,1.4c0,0.5,0.2,1,0.6,1.4c2.4,2.4,5.7,3.8,9.1,3.8c7.1,0,12.9-5.8,12.9-12.9V4.8
					C81.4,3.7,80.5,2.8,79.4,2.8z"/>
				<path fill="#012e31" d="M118.1,2.8c-1.1,0-2,0.9-2,2v14.7c0,3.1-2.5,5.7-5.7,5.7c-3.1,0-5.7-2.5-5.7-5.7V9.1c0-1.1-0.9-2-2-2
					c-1.1,0-2,0.9-2,2v10.3c0,3.1-2.5,5.7-5.7,5.7c-3.1,0-5.7-2.5-5.7-5.7V4.8c0-1.1-0.9-2-2-2c-1.1,0-2,0.9-2,2v14.7
					c0,5.3,4.3,9.6,9.6,9.6c3,0,5.8-1.4,7.7-3.8c1.8,2.4,4.7,3.8,7.7,3.8c5.3,0,9.6-4.3,9.6-9.6V4.8C120.1,3.7,119.2,2.8,118.1,2.8z
					"/>
			</g>
		</g>
		<g>
			<path fill="#b8b6b0" d="M72.9,39.8c0,0.7-0.2,1.2-0.5,1.6C72,41.8,71.5,42,70.9,42c-0.6,0-1.1-0.2-1.5-0.6
				c-0.3-0.4-0.5-0.9-0.5-1.6c0-0.7,0.2-1.2,0.5-1.6c0.3-0.4,0.8-0.6,1.5-0.6c0.6,0,1.1,0.2,1.4,0.6S72.9,39.1,72.9,39.8z
				 M69.4,39.8c0,0.6,0.1,1,0.4,1.3c0.2,0.3,0.6,0.4,1.1,0.4c0.5,0,0.8-0.1,1.1-0.4c0.2-0.3,0.4-0.7,0.4-1.3c0-0.6-0.1-1-0.4-1.3
				c-0.2-0.3-0.6-0.4-1.1-0.4c-0.5,0-0.8,0.1-1.1,0.4C69.6,38.8,69.4,39.3,69.4,39.8z"/>
			<path fill="#b8b6b0" d="M81.9,38.9c0,0.4-0.1,0.8-0.4,1s-0.7,0.4-1.3,0.4h-0.5V42h-0.5v-4.3h1.1C81.3,37.7,81.9,38.1,81.9,38.9z
				 M79.6,39.9h0.4c0.4,0,0.8-0.1,1-0.2c0.2-0.1,0.3-0.4,0.3-0.7c0-0.3-0.1-0.5-0.3-0.6c-0.2-0.1-0.5-0.2-0.9-0.2h-0.6V39.9z"/>
			<path fill="#b8b6b0" d="M90.5,42h-2.4v-4.3h2.4v0.4h-1.9v1.4h1.8V40h-1.8v1.6h1.9V42z"/>
			<path fill="#b8b6b0" d="M100.1,42h-0.6l-2.3-3.6h0c0,0.4,0,0.8,0,1.2V42h-0.5v-4.3h0.6l2.3,3.6h0c0-0.1,0-0.2,0-0.5
				c0-0.3,0-0.5,0-0.6v-2.5h0.5V42z"/>
			<path fill="#b8b6b0" d="M112.9,43.1c-0.2,0-0.3,0-0.4-0.1v-0.4c0.1,0,0.3,0.1,0.4,0.1c0.2,0,0.3-0.1,0.4-0.2
				c0.1-0.1,0.2-0.3,0.2-0.5v-4.3h0.5v4.2c0,0.4-0.1,0.7-0.3,0.9C113.5,43,113.3,43.1,112.9,43.1z"/>
			<path fill="#b8b6b0" d="M122.9,42h-2.4v-4.3h2.4v0.4H121v1.4h1.8V40H121v1.6h1.9V42z"/>
			<path fill="#b8b6b0" d="M132.9,42h-0.5l-0.9-2.9c0-0.1-0.1-0.3-0.1-0.5c-0.1-0.2-0.1-0.3-0.1-0.3c0,0.3-0.1,0.5-0.2,0.8l-0.8,2.9
				h-0.5l-1.1-4.3h0.5l0.7,2.6c0.1,0.4,0.2,0.7,0.2,1c0.1-0.4,0.1-0.7,0.2-1l0.8-2.6h0.5l0.8,2.6c0.1,0.3,0.2,0.6,0.2,1
				c0-0.3,0.1-0.6,0.2-1l0.7-2.6h0.5L132.9,42z"/>
			<path fill="#b8b6b0" d="M142.4,42h-2.4v-4.3h2.4v0.4h-1.9v1.4h1.8V40h-1.8v1.6h1.9V42z"/>
			<path fill="#b8b6b0" d="M148.7,42v-4.3h0.5v3.8h1.9V42H148.7z"/>
			<path fill="#b8b6b0" d="M157.2,42v-4.3h0.5v3.8h1.9V42H157.2z"/>
			<path fill="#b8b6b0" d="M168,42h-2.4v-4.3h2.4v0.4h-1.9v1.4h1.8V40h-1.8v1.6h1.9V42z"/>
			<path fill="#b8b6b0" d="M180.9,42c0,0-0.6,0.7-1.7,0.7c-1.2,0-1.9-0.8-2.4-1.6c0,0-0.5-0.9-0.6-1.1c0.5-0.2,0.8-0.6,0.8-1.1
				c0-0.4-0.1-0.7-0.4-0.9c-0.3-0.2-0.6-0.3-1.2-0.3h-1.2V42h0.5v-1.8h0.9c0.1,0.2,0.7,1.2,0.7,1.2c0.5,0.8,1,1.7,2.5,1.7
				C180.3,43,181.3,41.9,180.9,42z M174.8,39.8v-1.6h0.6c0.4,0,0.6,0.1,0.8,0.2c0.2,0.1,0.3,0.3,0.3,0.6c0,0.3-0.1,0.5-0.2,0.6
				c-0.2,0.1-0.4,0.2-0.8,0.2H174.8z"/>
			<path fill="#b8b6b0" d="M184.5,39.8l1.1-2.1h0.5l-1.4,2.6V42h-0.5v-1.6l-1.4-2.6h0.5L184.5,39.8z"/>
		</g>
	</g>
	<g>
		<g>
			<g>
				<g>
					<polygon fill="#012e31" points="30.6,10.6 24.1,10.6 27.4,13.8 					"/>
					<path fill="#012e31" d="M32.5,13.2l-3,3c1.7,1.7,2.8,4.1,2.8,6.8c0,5.3-4.3,9.6-9.6,9.6c-2.6,0-5-1-6.8-2.8
						c-0.4-0.4-0.9-0.6-1.5-0.6s-1.1,0.2-1.5,0.6c-0.8,0.8-0.8,2.2,0,3c2.6,2.6,6.1,4,9.7,4c7.6,0,13.8-6.2,13.8-13.8
						C36.6,19.1,35,15.7,32.5,13.2z"/>
				</g>
			</g>
			<path fill="none" stroke="#012e31" stroke-width="0.5" stroke-miterlimit="10" d="M30.3,37.2"/>
		</g>
		<path fill="#D6D4CF" d="M22.9,0.1C10.3,0.1,0.1,10.3,0.1,22.9c0,12.6,10.2,22.8,22.8,22.8c0.1,0,0.3,0,0.4,0l0.1,0l0,0
			c12.4-0.3,22.3-10.4,22.3-22.8C45.8,10.3,35.5,0.1,22.9,0.1z M29,40.2l-5.7,5.6v-4.6c-0.1,0-0.3,0-0.4,0
			C12.8,41.2,4.6,33,4.6,22.9S12.8,4.7,22.9,4.7c10.1,0,18.3,8.2,18.3,18.3C41.2,30.9,36.1,37.7,29,40.2z"/>
	</g>
</g>
</svg>
