<?xml version="1.0" encoding="utf-8"?>
<!-- Generator: Adobe Illustrator 17.0.0, SVG Export Plug-In . SVG Version: 6.00 Build 0)  -->
<!DOCTYPE svg PUBLIC "-//W3C//DTD SVG 1.1//EN" "http://www.w3.org/Graphics/SVG/1.1/DTD/svg11.dtd">
<svg version="1.1" id="Calque_2" xmlns="http://www.w3.org/2000/svg" xmlns:xlink="http://www.w3.org/1999/xlink" x="0px" y="0px"
	 width="60px" height="60px" viewBox="0 0 60 60" enable-background="new 0 0 60 60" xml:space="preserve">
<g>
	<path opacity="0.9" fill-rule="evenodd" clip-rule="evenodd" fill="#F37476" d="M30,0c16.6,0,30,13.4,30,30S46.6,60,30,60
		C13.4,60,0,46.6,0,30S13.4,0,30,0z"/>
	<g>
		<path fill="#FFFFFF" d="M19.7,15.7l0,1.5c3.9,0,7.4,2.5,9.4,6.7l1.4,3l1.4-3c1.9-4.1,5.4-6.5,9.4-6.5c4.4,0,9.1,3.3,9.2,10.6
			c0,5.4-4.5,8-8.8,10.5c-1.1,0.6-2.1,1.2-3,1.8c-3.2,2.1-6.3,4.9-8,7.2c-1.7-2.2-4.6-5-8.1-7.1c-0.8-0.5-1.6-0.9-2.5-1.4
			c-4.6-2.6-9.4-5.3-9.4-10.9c0.1-7.4,4.8-10.8,9.2-10.8L19.7,15.7 M19.7,15.7C14.2,15.7,9.1,20,9,28c-0.1,7.7,7.5,10.5,12.6,13.6
			c4.9,3,8.4,7,8.9,8.8c0.5-1.7,4.3-5.9,8.9-8.8c4.9-3.2,12.6-5.9,12.6-13.6c-0.1-7.9-5.2-12.1-10.7-12.1c-4.2,0-8.5,2.4-10.8,7.4
			C28.1,18.1,23.8,15.7,19.7,15.7L19.7,15.7z"/>
	</g>
</g>
</svg>
