<?xml version="1.0" encoding="utf-8"?>
<!-- Generator: Adobe Illustrator 17.0.0, SVG Export Plug-In . SVG Version: 6.00 Build 0)  -->
<!DOCTYPE svg PUBLIC "-//W3C//DTD SVG 1.1//EN" "http://www.w3.org/Graphics/SVG/1.1/DTD/svg11.dtd">
<svg version="1.1" id="Calque_1" xmlns="http://www.w3.org/2000/svg" xmlns:xlink="http://www.w3.org/1999/xlink" x="0px" y="0px"
	 width="31px" height="52px" viewBox="0 0 31 52" enable-background="new 0 0 31 52" xml:space="preserve">
<g>
	<g>
		<path fill-rule="evenodd" clip-rule="evenodd" fill="#F4F3F2" d="M4,25.5c-1.9,0-3.5-1.6-3.5-3.5V4c0-1.9,1.6-3.5,3.5-3.5h23
			c1.9,0,3.5,1.6,3.5,3.5v18c0,1.9-1.6,3.5-3.5,3.5H4z"/>
		<path fill="#D7D5D0" d="M27,1c1.7,0,3,1.3,3,3v18c0,1.7-1.3,3-3,3H4c-1.7,0-3-1.3-3-3V4c0-1.7,1.3-3,3-3H27 M27,0H4
			C1.8,0,0,1.8,0,4v18c0,2.2,1.8,4,4,4h23c2.2,0,4-1.8,4-4V4C31,1.8,29.2,0,27,0L27,0z"/>
	</g>
	<g>
		
			<line fill="#F4F3F2" stroke="#D7D5D0" stroke-linecap="round" stroke-linejoin="round" stroke-miterlimit="10" x1="12.3" y1="8" x2="12.3" y2="18"/>
		
			<line fill="#F4F3F2" stroke="#D7D5D0" stroke-linecap="round" stroke-linejoin="round" stroke-miterlimit="10" x1="15.3" y1="8" x2="15.3" y2="18"/>
		
			<line fill="#F4F3F2" stroke="#D7D5D0" stroke-linecap="round" stroke-linejoin="round" stroke-miterlimit="10" x1="18.3" y1="8" x2="18.3" y2="18"/>
	</g>
</g>
<g>
	<g>
		<path fill-rule="evenodd" clip-rule="evenodd" fill="#F4F3F2" d="M4.2,51.5c-1.9,0-3.5-1.6-3.5-3.5V30c0-1.9,1.6-3.5,3.5-3.5h23
			c1.9,0,3.5,1.6,3.5,3.5v18c0,1.9-1.6,3.5-3.5,3.5H4.2z"/>
		<path fill="#44C0C6" d="M27.2,27c1.7,0,3,1.3,3,3v18c0,1.7-1.3,3-3,3h-23c-1.7,0-3-1.3-3-3V30c0-1.7,1.3-3,3-3H27.2 M27.2,26h-23
			c-2.2,0-4,1.8-4,4v18c0,2.2,1.8,4,4,4h23c2.2,0,4-1.8,4-4V30C31.2,27.8,29.5,26,27.2,26L27.2,26z"/>
	</g>
	<g>
		
			<line fill="#F4F3F2" stroke="#44C0C6" stroke-linecap="round" stroke-linejoin="round" stroke-miterlimit="10" x1="12.3" y1="34" x2="12.3" y2="44"/>
		
			<line fill="#F4F3F2" stroke="#44C0C6" stroke-linecap="round" stroke-linejoin="round" stroke-miterlimit="10" x1="15.3" y1="34" x2="15.3" y2="44"/>
		
			<line fill="#F4F3F2" stroke="#44C0C6" stroke-linecap="round" stroke-linejoin="round" stroke-miterlimit="10" x1="18.3" y1="34" x2="18.3" y2="44"/>
	</g>
</g>
</svg>
